<svg width="206" height="206" viewBox="0 0 206 206" fill="none" xmlns="http://www.w3.org/2000/svg">
<path d="M103 142.602C45.9756 142.602 35.8776 85.7763 34.0956 40.6917C33.5907 28.1583 33.3432 21.8817 38.0556 16.0902C42.7581 10.2888 48.3912 9.33843 59.6673 7.43763C73.9908 5.0901 88.4851 3.94102 103 4.00233C120.661 4.00233 135.204 5.55663 146.332 7.43763C157.608 9.33843 163.241 10.2888 167.953 16.0902C172.666 21.8916 172.408 28.1583 171.913 40.6917C170.131 85.7664 160.033 142.602 103.009 142.602H103Z" stroke="#FFE146" stroke-width="8"/>
<path d="M103 142.603V172.303" stroke="#FFE146" stroke-width="8" stroke-linecap="round"/>
<path d="M137.65 202.003H68.3499L71.7159 185.212C72.1643 182.969 73.3758 180.95 75.1446 179.499C76.9133 178.048 79.13 177.254 81.4178 177.253H124.582C126.87 177.254 129.086 178.048 130.855 179.499C132.624 180.95 133.835 182.969 134.284 185.212L137.65 202.003Z" stroke="#FFE146" stroke-width="8" stroke-linecap="round" stroke-linejoin="round"/>
<path d="M172.3 33.7024L181.695 36.8308C191.496 40.0978 196.397 41.7313 199.198 45.622C202 49.5127 202 54.6805 202 65.0062V65.7289C202 74.2429 202 78.5098 199.951 81.9946C197.901 85.4794 194.169 87.5485 186.724 91.6966L157.45 107.952M33.7 33.7024L24.3049 36.8308C14.5039 40.0978 9.6034 41.7313 6.8017 45.622C4 49.5127 4 54.6904 4 65.0062V65.7289C4 74.2429 4 78.5098 6.0493 81.9946C8.0986 85.4794 11.8309 87.5485 19.2757 91.6966L48.55 107.952M94.5454 43.8301C98.3074 37.0684 100.188 33.7024 103 33.7024C105.812 33.7024 107.693 37.0684 111.455 43.8301L112.425 45.5725C113.494 47.4931 114.029 48.4435 114.86 49.0771C115.702 49.7107 116.741 49.9483 118.82 50.4136L120.701 50.8492C128.007 52.5025 131.66 53.3242 132.532 56.116C133.403 58.9177 130.908 61.8283 125.928 67.6495L124.641 69.1543C123.226 70.8076 122.513 71.6293 122.196 72.6589C121.879 73.6885 121.988 74.7874 122.196 76.9951L122.394 79.0048C123.146 86.7763 123.523 90.667 121.256 92.3896C118.979 94.1122 115.553 92.5381 108.712 89.3899L106.95 88.5781C105 87.6871 104.03 87.2416 103 87.2416C101.97 87.2416 101 87.6871 99.0499 88.5781L97.2877 89.3899C90.4468 92.548 87.0214 94.1122 84.7444 92.3896C82.4674 90.667 82.8535 86.7763 83.6059 79.0048L83.8039 76.9951C84.0118 74.7874 84.1207 73.6885 83.8039 72.6589C83.4871 71.6392 82.7743 70.8076 81.3586 69.1543L80.0716 67.6495C75.0919 61.8283 72.5971 58.9177 73.4683 56.116C74.3395 53.3242 77.9926 52.5025 85.2988 50.8492L87.1798 50.4136C89.2588 49.9483 90.2983 49.7206 91.1398 49.0771C91.9714 48.4435 92.506 47.4931 93.5752 45.5725L94.5454 43.8301Z" stroke="#FFE146" stroke-width="8"/>
<path d="M162.4 202.003H43.5999" stroke="#FFE146" stroke-width="8" stroke-linecap="round"/>
</svg>
